<?xml version="1.0" standalone="no"?>
<!DOCTYPE svg PUBLIC "-//W3C//DTD SVG 20010904//EN"
 "http://www.w3.org/TR/2001/REC-SVG-20010904/DTD/svg10.dtd">
<svg version="1.0" xmlns="http://www.w3.org/2000/svg"
 width="225.000000pt" height="225.000000pt" viewBox="0 0 225.000000 225.000000"
 preserveAspectRatio="xMidYMid meet">

<g transform="translate(0.000000,225.000000) scale(0.100000,-0.100000)"
fill="#000000" stroke="none">
<path d="M382 1138 l3 -763 108 -3 107 -3 0 661 0 660 215 0 215 0 0 105 0
105 -325 0 -325 0 2 -762z"/>
<path d="M1250 1575 l0 -325 225 0 225 0 0 -220 0 -220 110 0 110 0 0 325 0
325 -227 2 -228 3 -3 218 -2 217 -105 0 -105 0 0 -325z"/>
<path d="M1700 1795 l0 -105 105 0 105 0 0 105 0 105 -105 0 -105 0 0 -105z"/>
<path d="M810 1135 l0 -325 225 0 225 0 0 -220 0 -220 110 0 110 0 0 330 0
330 -230 0 -230 0 0 215 0 215 -105 0 -105 0 0 -325z"/>
<path d="M810 480 l0 -110 105 0 105 0 0 110 0 110 -105 0 -105 0 0 -110z"/>
<path d="M1700 480 l0 -110 105 0 105 0 0 110 0 110 -105 0 -105 0 0 -110z"/>
</g>
</svg>
